<svg width="69" height="57" viewBox="0 0 69 57" fill="none" xmlns="http://www.w3.org/2000/svg">
<path fill-rule="evenodd" clip-rule="evenodd" d="M42.6356 15.802C42.7493 15.6769 43.0819 15.1521 43.0819 13.4523C43.0819 6.95423 38.3071 2 32.7868 2C27.2665 2 22.4917 6.95423 22.4917 13.4523C22.4917 15.1521 22.8243 15.6769 22.938 15.802C22.9885 15.8576 23.1741 16.0449 24.0642 16.0322C24.8706 16.0206 25.8334 15.8591 27.114 15.6443C27.2941 15.6141 27.4804 15.5828 27.6735 15.5508C29.1576 15.3045 30.9131 15.0396 32.7868 15.0396C34.6604 15.0396 36.416 15.3045 37.9 15.5508C38.0931 15.5828 38.2795 15.6141 38.4595 15.6443C39.7402 15.8591 40.703 16.0206 41.5094 16.0322C42.3994 16.0449 42.585 15.8576 42.6356 15.802ZM38.1266 17.6167C42.2424 18.3099 45.0819 18.7882 45.0819 13.4523C45.0819 6.02279 39.5772 0 32.7868 0C25.9964 0 20.4917 6.02279 20.4917 13.4523C20.4917 18.7882 23.3311 18.3099 27.447 17.6167C29.0619 17.3447 30.8733 17.0396 32.7868 17.0396C34.7003 17.0396 36.5117 17.3447 38.1266 17.6167Z" fill="#555555"/>
<path fill-rule="evenodd" clip-rule="evenodd" d="M60.3112 47.0401C61.181 46.4589 61.9344 45.3549 61.9344 42.6879C61.9344 37.3977 58.8485 32.3974 53.4308 28.6357C48.0205 24.8791 40.4381 22.4918 31.9672 22.4918C23.4963 22.4918 15.9139 24.8791 10.5037 28.6357C9.84186 29.0952 9.21487 29.5732 8.62404 30.0679C9.00773 29.8695 9.40667 29.6927 9.8213 29.5416C11.8958 28.7856 14.2232 28.7262 16.7468 29.6192C21.4862 31.2963 26.8323 36.2968 33.0761 46.0955C37.204 46.1591 41.1179 46.5646 44.6448 46.981C45.3501 47.0642 46.0364 47.1474 46.7038 47.2283C49.7233 47.5942 52.3578 47.9135 54.6345 47.9853C57.4673 48.0747 59.2509 47.7485 60.3112 47.0401ZM31.9672 48.0869C13.9652 19.2271 5.52613 33.9451 2.06613 41.3487C1.85881 41.7923 1.66936 42.2097 1.49681 42.5898C1.48184 42.6228 1.46701 42.6555 1.4523 42.6879C1.39771 42.8081 1.34486 42.9244 1.29372 43.0363C0.374174 45.0495 0.00664374 45.667 8.94008e-05 42.7679C2.97523e-05 42.7415 0 42.7148 0 42.6879C0 42.0529 0.0384049 41.4241 0.113687 40.8026C1.49172 29.4265 15.2267 20.4918 31.9672 20.4918C49.6222 20.4918 63.9344 30.4293 63.9344 42.6879C63.9344 51.3331 56.8161 50.4697 46.4269 49.2096C42.0848 48.6829 37.1712 48.0869 31.9672 48.0869Z" fill="#555555"/>
<path d="M60.6556 40.5737C60.6556 43.0635 59.8667 45.4918 57.3769 45.4918C54.8871 45.4918 57.3767 39.7849 57.3767 37.295C57.3767 34.8052 52.8379 34.0164 55.3277 34.0164C57.8175 34.0164 60.6556 38.0839 60.6556 40.5737Z" fill="#555555"/>
<path d="M69 42.5C69 50.5081 62.5081 57 54.5 57C46.4919 57 40 50.5081 40 42.5C40 34.4919 46.4919 28 54.5 28C62.5081 28 69 34.4919 69 42.5Z" fill="white"/>
<path fill-rule="evenodd" clip-rule="evenodd" d="M54.5 56C61.9558 56 68 49.9558 68 42.5C68 35.0442 61.9558 29 54.5 29C47.0442 29 41 35.0442 41 42.5C41 49.9558 47.0442 56 54.5 56ZM54.5 57C62.5081 57 69 50.5081 69 42.5C69 34.4919 62.5081 28 54.5 28C46.4919 28 40 34.4919 40 42.5C40 50.5081 46.4919 57 54.5 57Z" fill="#555555"/>
<rect x="50.2" y="37.2" width="9.99999" height="12.6" rx="1.8" stroke="#555555" stroke-width="0.4"/>
<path d="M51.7334 47.3999H58.6667" stroke="#DD8D8D" stroke-width="0.5" stroke-linecap="round"/>
<path d="M51.7334 42.2H56.9334" stroke="#DD8D8D" stroke-width="0.5" stroke-linecap="round"/>
<path d="M51.7334 43.9333H57.8001" stroke="#DD8D8D" stroke-width="0.5" stroke-linecap="round"/>
<path d="M51.7334 45.6666H56.9334" stroke="#555555" stroke-width="0.5" stroke-linecap="round"/>
<circle cx="59" cy="38" r="3" fill="white"/>
<path d="M61.2926 36.3301C61.2926 36.3569 61.2893 36.3835 61.2829 36.4094L61.2035 36.33L61.1329 36.2595L61.0831 36.2096L61.0332 36.1598L60.9627 36.0893L60.8832 36.0097C60.9091 36.0033 60.9359 36 60.9628 36C61.0061 36 61.049 36.0086 61.089 36.0252C61.129 36.0417 61.1654 36.0661 61.196 36.0967C61.2267 36.1274 61.251 36.1637 61.2675 36.2038C61.2841 36.2438 61.2926 36.2867 61.2926 36.3301Z" fill="white" stroke="#DD8D8D"/>
</svg>
