<svg width="48" height="48" viewBox="0 0 48 48" fill="none" xmlns="http://www.w3.org/2000/svg">
<path d="M24.0009 25.5566C22.5703 25.5566 21.4055 26.7197 21.4055 28.1494C21.4055 29.5791 22.5703 30.7431 24.0009 30.7431C25.4306 30.7431 26.5953 29.5791 26.5953 28.1494C26.5953 26.7197 25.4306 25.5566 24.0009 25.5566Z" fill="#FC472F"/>
<path d="M30.3 29.3281C33.2987 25.8432 37.8459 24.0477 43.7997 23.9648C43.7604 21.9779 43.4288 20.0628 42.8435 18.2605C36.4265 22.5539 30.1128 24.0067 24.5256 24.0067C14.6595 24.0067 7.06229 19.5065 5.15487 18.2648C4.59346 19.9971 4.27469 21.8378 4.21393 23.7418C10.3814 23.7426 15.0646 25.5535 18.1341 29.1205C22.9787 34.7521 22.1839 42.7869 22.0199 44.0748C22.672 44.1389 23.3317 44.1739 24.0008 44.1739C24.8067 44.1739 25.6032 44.1192 26.386 44.0252C26.1834 42.1681 25.7031 34.6683 30.3 29.3281ZM41.5642 20.9208L41.8923 21.6839L35.6215 24.3802L35.2925 23.6187L41.5642 20.9208ZM12.8136 24.3801L6.54262 21.6838L6.86989 20.9207L13.1399 23.6186L12.8136 24.3801ZM20.5766 28.1496C20.5766 26.2618 22.1114 24.7262 24.0008 24.7262C25.8886 24.7262 27.4251 26.2618 27.4251 28.1496C27.4251 30.0382 25.8886 31.5739 24.0008 31.5739C22.1114 31.5739 20.5766 30.0382 20.5766 28.1496Z" fill="#FC472F"/>
<path d="M24 0.000488281C10.7668 0.000488281 0 10.7665 0 23.9996C0 37.2336 10.7668 47.9996 24 47.9996C37.2332 47.9996 48 37.2328 48 23.9996C48 10.7665 37.2332 0.000488281 24 0.000488281ZM24 45.0026C12.6196 45.0026 3.35941 35.745 3.35941 24.3637C3.35941 12.9825 12.6196 3.72303 24 3.72303C35.3796 3.72303 44.6389 12.9815 44.6389 24.3628C44.6389 35.744 35.3796 45.0026 24 45.0026Z" fill="#FC472F"/>
</svg>
