<svg width="78" height="65" viewBox="0 0 78 65" fill="none" xmlns="http://www.w3.org/2000/svg">
<path fill-rule="evenodd" clip-rule="evenodd" d="M48.1963 17.8631C48.3248 17.7217 48.7008 17.1285 48.7008 15.2069C48.7008 7.86131 43.3032 2.26087 37.0629 2.26087C30.8225 2.26087 25.4249 7.86131 25.4249 15.2069C25.4249 17.1285 25.8009 17.7217 25.9294 17.8631C25.9866 17.926 26.1964 18.1377 27.2025 18.1233C28.1141 18.1103 29.2025 17.9277 30.6502 17.6849C30.8537 17.6507 31.0644 17.6154 31.2827 17.5792C32.9603 17.3007 34.9448 17.0012 37.0629 17.0012C39.1809 17.0012 41.1654 17.3007 42.843 17.5792C43.0613 17.6154 43.272 17.6507 43.4755 17.6849C44.9232 17.9277 46.0116 18.1103 46.9232 18.1233C47.9293 18.1377 48.1392 17.926 48.1963 17.8631ZM43.0991 19.9145C47.7519 20.6982 50.9616 21.2388 50.9616 15.2069C50.9616 6.80837 44.7389 0 37.0629 0C29.3868 0 23.1641 6.80837 23.1641 15.2069C23.1641 21.2388 26.3738 20.6982 31.0266 19.9145C32.8521 19.607 34.8998 19.2621 37.0629 19.2621C39.2259 19.2621 41.2736 19.607 43.0991 19.9145Z" fill="#555555"/>
<path fill-rule="evenodd" clip-rule="evenodd" d="M68.1779 53.1757C69.1611 52.5187 70.0128 51.2707 70.0128 48.2558C70.0128 42.2757 66.5244 36.6232 60.4 32.3708C54.284 28.1242 45.7127 25.4255 36.1368 25.4255C26.561 25.4255 17.9897 28.1242 11.8737 32.3708C11.1256 32.8902 10.4168 33.4306 9.74891 33.9898C10.1827 33.7655 10.6336 33.5656 11.1023 33.3948C13.4475 32.5403 16.0784 32.4731 18.9312 33.4826C24.2888 35.3783 30.3322 41.0312 37.3903 52.108C42.0567 52.1798 46.4811 52.6382 50.468 53.1089C51.2654 53.203 52.0411 53.297 52.7956 53.3885C56.209 53.8021 59.1871 54.163 61.7608 54.2443C64.963 54.3453 66.9793 53.9765 68.1779 53.1757ZM36.1368 54.3591C15.7867 21.7349 6.24693 38.3727 2.33563 46.742C2.10126 47.2435 1.88711 47.7153 1.69204 48.145C1.67513 48.1823 1.65836 48.2192 1.64173 48.2558C1.58002 48.3917 1.52028 48.5232 1.46247 48.6497C0.42298 50.9255 0.00751031 51.6236 0.000101062 48.3463C3.3633e-05 48.3165 0 48.2863 0 48.2558C0 47.538 0.0434142 46.8272 0.128515 46.1247C1.68629 33.2647 17.2128 23.1646 36.1368 23.1646C56.0947 23.1646 72.2737 34.3983 72.2737 48.2558C72.2737 58.0287 64.2268 57.0527 52.4826 55.6282C47.5741 55.0328 42.0196 54.3591 36.1368 54.3591Z" fill="#555555"/>
<path d="M68.5675 45.866C68.5675 48.6806 67.6757 51.4255 64.8612 51.4255C62.0466 51.4255 64.8609 44.9742 64.8609 42.1597C64.8609 39.3451 59.7301 38.4533 62.5447 38.4533C65.3593 38.4533 68.5675 43.0514 68.5675 45.866Z" fill="#555555"/>
<path d="M78.0004 48.0435C78.0004 57.0961 70.6617 64.4348 61.6091 64.4348C52.5564 64.4348 45.2178 57.0961 45.2178 48.0435C45.2178 38.9908 52.5564 31.6522 61.6091 31.6522C70.6617 31.6522 78.0004 38.9908 78.0004 48.0435Z" fill="white"/>
<path fill-rule="evenodd" clip-rule="evenodd" d="M61.6091 63.3043C70.0374 63.3043 76.8699 56.4718 76.8699 48.0435C76.8699 39.6151 70.0374 32.7826 61.6091 32.7826C53.1807 32.7826 46.3482 39.6151 46.3482 48.0435C46.3482 56.4718 53.1807 63.3043 61.6091 63.3043ZM61.6091 64.4348C70.6617 64.4348 78.0004 57.0961 78.0004 48.0435C78.0004 38.9908 70.6617 31.6522 61.6091 31.6522C52.5564 31.6522 45.2178 38.9908 45.2178 48.0435C45.2178 57.0961 52.5564 64.4348 61.6091 64.4348Z" fill="#555555"/>
<path fill-rule="evenodd" clip-rule="evenodd" d="M70.3399 54.1953C70.4891 54.0188 70.6518 53.6764 70.6518 52.9194C70.6518 51.4548 70.0356 50.1393 68.788 49.1628C67.52 48.1704 65.5279 47.4783 62.7388 47.4783C59.9497 47.4783 57.9576 48.1704 56.6896 49.1628C55.442 50.1393 54.8257 51.4548 54.8257 52.9194C54.8257 53.6764 54.9885 54.0188 55.1377 54.1953C55.2907 54.3764 55.5813 54.5631 56.2158 54.6907C56.8568 54.8196 57.7044 54.8607 58.8248 54.8619C59.3504 54.8625 59.9177 54.8545 60.5362 54.8459L60.6316 54.8446C61.2842 54.8355 61.9887 54.8261 62.7388 54.8261C63.4889 54.8261 64.1934 54.8355 64.846 54.8446L64.9414 54.8459C65.5599 54.8545 66.1271 54.8625 66.6528 54.8619C67.7732 54.8607 68.6208 54.8196 69.2618 54.6907C69.8963 54.5631 70.1869 54.3764 70.3399 54.1953ZM64.929 55.9763C69.4337 56.0393 71.7823 56.0721 71.7823 52.9194C71.7823 49.29 68.6698 46.3478 62.7388 46.3478C56.8077 46.3478 53.6953 49.29 53.6953 52.9194C53.6953 56.0721 56.0439 56.0393 60.5486 55.9763C61.2296 55.9667 61.9599 55.9565 62.7388 55.9565C63.5177 55.9565 64.248 55.9667 64.929 55.9763Z" fill="#653737"/>
<path d="M69.8044 51.7174C69.8044 52.4685 69.5475 53.2011 68.7366 53.2011C67.9257 53.2011 68.7365 51.4794 68.7365 50.7283C68.7365 49.9771 67.2583 49.7391 68.0692 49.7391C68.8801 49.7391 69.8044 50.9663 69.8044 51.7174Z" fill="#555555"/>
<path fill-rule="evenodd" clip-rule="evenodd" d="M62.7387 44.087C64.2996 44.087 65.5648 42.8217 65.5648 41.2609C65.5648 39.7001 64.2996 38.4348 62.7387 38.4348C61.1779 38.4348 59.9127 39.7001 59.9127 41.2609C59.9127 42.8217 61.1779 44.087 62.7387 44.087ZM62.7387 45.2174C64.9239 45.2174 66.6953 43.446 66.6953 41.2609C66.6953 39.0757 64.9239 37.3044 62.7387 37.3044C60.5536 37.3044 58.7822 39.0757 58.7822 41.2609C58.7822 43.446 60.5536 45.2174 62.7387 45.2174Z" fill="#653737"/>
</svg>
