<svg width="48" height="48" viewBox="0 0 48 48" fill="none" xmlns="http://www.w3.org/2000/svg">
<path d="M11.25 6.5625C11.25 5.01169 9.98831 3.75 8.4375 3.75C6.88669 3.75 5.625 5.01169 5.625 6.5625C5.625 8.11331 6.88669 9.375 8.4375 9.375C9.98831 9.375 11.25 8.11331 11.25 6.5625ZM8.4375 7.5C7.92056 7.5 7.5 7.07944 7.5 6.5625C7.5 6.04556 7.92056 5.625 8.4375 5.625C8.95444 5.625 9.375 6.04556 9.375 6.5625C9.375 7.07944 8.95444 7.5 8.4375 7.5Z" fill="#0D47A1"/>
<path d="M42.375 6.5625C42.375 5.01169 41.1133 3.75 39.5625 3.75C38.0117 3.75 36.75 5.01169 36.75 6.5625C36.75 8.11331 38.0117 9.375 39.5625 9.375C41.1133 9.375 42.375 8.11331 42.375 6.5625ZM39.5625 7.5C39.0456 7.5 38.625 7.07944 38.625 6.5625C38.625 6.04556 39.0456 5.625 39.5625 5.625C40.0794 5.625 40.5 6.04556 40.5 6.5625C40.5 7.07944 40.0794 7.5 39.5625 7.5Z" fill="#0D47A1"/>
<path d="M42.375 37.6875C42.375 36.1367 41.1133 34.875 39.5625 34.875C38.0117 34.875 36.75 36.1367 36.75 37.6875C36.75 39.2383 38.0117 40.5 39.5625 40.5C41.1133 40.5 42.375 39.2383 42.375 37.6875ZM39.5625 38.625C39.0456 38.625 38.625 38.2044 38.625 37.6875C38.625 37.1706 39.0456 36.75 39.5625 36.75C40.0794 36.75 40.5 37.1706 40.5 37.6875C40.5 38.2044 40.0794 38.625 39.5625 38.625Z" fill="#0D47A1"/>
<path d="M11.25 37.6875C11.25 36.1367 9.98831 34.875 8.4375 34.875C6.88669 34.875 5.625 36.1367 5.625 37.6875C5.625 39.2383 6.88669 40.5 8.4375 40.5C9.98831 40.5 11.25 39.2383 11.25 37.6875ZM8.4375 38.625C7.92056 38.625 7.5 38.2044 7.5 37.6875C7.5 37.1706 7.92056 36.75 8.4375 36.75C8.95444 36.75 9.375 37.1706 9.375 37.6875C9.375 38.2044 8.95444 38.625 8.4375 38.625Z" fill="#0D47A1"/>
<path d="M24 23.0625C23.4831 23.0625 23.0625 22.6419 23.0625 22.125C23.0625 21.6081 23.4831 21.1875 24 21.1875C24.2977 21.1875 24.5711 21.3244 24.7504 21.5631C25.0614 21.977 25.649 22.0605 26.0631 21.7496C26.4771 21.4387 26.5606 20.851 26.2496 20.437C25.9145 19.9909 25.4538 19.6591 24.9375 19.4756V18.375C24.9375 17.8572 24.5177 17.4375 24 17.4375C23.4823 17.4375 23.0625 17.8572 23.0625 18.375V19.4738C21.9713 19.8608 21.1875 20.9028 21.1875 22.125C21.1875 23.6758 22.4492 24.9375 24 24.9375C24.5169 24.9375 24.9375 25.3581 24.9375 25.875C24.9375 26.3919 24.5169 26.8125 24 26.8125C23.7023 26.8125 23.4289 26.6756 23.2496 26.4369C22.9386 26.0229 22.3509 25.9393 21.9369 26.2504C21.5229 26.5613 21.4394 27.149 21.7504 27.563C22.0855 28.0091 22.5462 28.3409 23.0625 28.5244V29.625C23.0625 30.1428 23.4823 30.5625 24 30.5625C24.5177 30.5625 24.9375 30.1428 24.9375 29.625V28.5262C26.0287 28.1392 26.8125 27.0972 26.8125 25.875C26.8125 24.3242 25.5508 23.0625 24 23.0625Z" fill="#0D47A1"/>
<path d="M48 8.4375C48 3.78506 44.2149 0 39.5625 0C35.2269 0 31.6452 3.28716 31.1774 7.5H16.8226C16.3548 3.28716 12.7731 0 8.4375 0C3.78506 0 0 3.78506 0 8.4375C0 12.676 3.18178 16.3395 7.5 16.8218V31.1774C3.28716 31.6452 0 35.2269 0 39.5625C0 44.1507 3.71822 48 8.4375 48C12.8178 48 16.3496 44.6828 16.8213 40.5H31.1788C31.6506 44.6833 35.1826 48 39.5625 48C44.2837 48 48 44.1486 48 39.5625C48 35.2269 44.7128 31.6452 40.5 31.1774V16.8218C44.8155 16.3399 48 12.6793 48 8.4375ZM39.5625 1.875C43.1811 1.875 46.125 4.81894 46.125 8.4375C46.125 10.2151 45.3958 11.9011 44.155 13.1216C43.7183 10.9863 41.8251 9.375 39.5625 9.375C37.2999 9.375 35.4067 10.9863 34.97 13.1216C33.7292 11.9011 33 10.2151 33 8.4375C33 4.81894 35.9439 1.875 39.5625 1.875ZM24.9375 9.375H31.1788C31.6132 13.2261 34.6445 16.3773 38.625 16.8218V23.0625H34.2695C33.8222 18.1228 29.8772 14.1779 24.9375 13.7305V9.375ZM23.0625 9.375V13.7305C18.1228 14.1778 14.1779 18.1228 13.7305 23.0625H9.375V16.8218C13.3456 16.3784 16.3857 13.2374 16.8213 9.375H23.0625ZM3.84497 13.1216C2.60419 11.9011 1.875 10.2151 1.875 8.4375C1.875 4.81894 4.81894 1.875 8.4375 1.875C12.0561 1.875 15 4.81894 15 8.4375C15 10.2151 14.2708 11.9011 13.03 13.1216C12.5933 10.9863 10.7001 9.375 8.4375 9.375C6.17494 9.375 4.28175 10.9863 3.84497 13.1216ZM5.625 14.3676V14.0625C5.625 12.5117 6.88669 11.25 8.4375 11.25C9.98831 11.25 11.25 12.5117 11.25 14.0625V14.3676C10.3751 14.7821 9.41306 15 8.4375 15C7.46194 15 6.49988 14.7821 5.625 14.3676ZM11.25 45.4926C10.375 45.9071 9.41297 46.125 8.4375 46.125C7.46203 46.125 6.49997 45.9071 5.625 45.4926V45.1875C5.625 43.6367 6.88669 42.375 8.4375 42.375C9.98831 42.375 11.25 43.6367 11.25 45.1875V45.4926ZM13.03 44.2466C12.5933 42.1113 10.7001 40.5 8.4375 40.5C6.17494 40.5 4.28175 42.1113 3.84497 44.2466C2.60419 43.0261 1.875 41.3401 1.875 39.5625C1.875 35.9439 4.81894 33 8.4375 33C12.0561 33 15 35.9439 15 39.5625C15 41.3401 14.2708 43.0261 13.03 44.2466ZM23.0625 38.625H16.8226C16.3889 34.7201 13.2799 31.6111 9.375 31.1774V24.9375H13.7305C14.1778 29.8772 18.1228 33.8221 23.0625 34.2695V38.625ZM31.1774 38.625H24.9375V34.2689C25.7622 34.1943 26.5722 34.0223 27.3552 33.7522C27.8447 33.5833 28.1046 33.0497 27.9357 32.5602C27.767 32.0707 27.2331 31.8109 26.7438 31.9796C25.863 32.2835 24.9398 32.4375 24 32.4375C19.3476 32.4375 15.5625 28.6524 15.5625 24C15.5625 19.3476 19.3476 15.5625 24 15.5625C28.6524 15.5625 32.4375 19.3476 32.4375 24C32.4375 24.9399 32.2834 25.8632 31.9796 26.7439C31.8108 27.2333 32.0707 27.7671 32.5601 27.9358C33.0496 28.1047 33.5832 27.8448 33.7521 27.3553C34.0222 26.5723 34.1942 25.7622 34.2689 24.9374H38.625V31.1773C34.7201 31.6111 31.6111 34.7201 31.1774 38.625ZM42.375 45.4926C41.5 45.9071 40.538 46.125 39.5625 46.125C38.587 46.125 37.625 45.9071 36.75 45.4926V45.1875C36.75 43.6367 38.0117 42.375 39.5625 42.375C41.1133 42.375 42.375 43.6367 42.375 45.1875V45.4926ZM46.125 39.5625C46.125 41.3401 45.3958 43.0261 44.155 44.2466C43.7183 42.1113 41.8251 40.5 39.5625 40.5C37.2999 40.5 35.4067 42.1113 34.97 44.2466C33.7292 43.0261 33 41.3401 33 39.5625C33 35.9439 35.9439 33 39.5625 33C43.1811 33 46.125 35.9439 46.125 39.5625ZM39.5625 15C38.5869 15 37.6249 14.7821 36.75 14.3676V14.0625C36.75 12.5117 38.0117 11.25 39.5625 11.25C41.1133 11.25 42.375 12.5117 42.375 14.0625V14.3676C41.5001 14.7821 40.5381 15 39.5625 15Z" fill="#0D47A1"/>
<path d="M30.6187 31.5562C31.1365 31.5562 31.5562 31.1364 31.5562 30.6187C31.5562 30.1009 31.1365 29.6812 30.6187 29.6812C30.101 29.6812 29.6812 30.1009 29.6812 30.6187C29.6812 31.1364 30.101 31.5562 30.6187 31.5562Z" fill="#0D47A1"/>
</svg>
