<svg width="48" height="48" viewBox="0 0 48 48" fill="none" xmlns="http://www.w3.org/2000/svg">
<path d="M46.5 29.9995C45.672 29.9995 45 30.6715 45 31.4995V41.9995H3V23.9995H19.5C20.328 23.9995 21 23.3275 21 22.4995C21 21.6715 20.328 20.9995 19.5 20.9995H3V14.9995H19.5C20.328 14.9995 21 14.3275 21 13.4995C21 12.6715 20.328 11.9995 19.5 11.9995H3C1.344 11.9995 0 13.3435 0 14.9995V41.9995C0 43.6555 1.344 44.9995 3 44.9995H45C46.656 44.9995 48 43.6555 48 41.9995V31.4995C48 30.6715 47.328 29.9995 46.5 29.9995Z" fill="#2D7B09"/>
<path d="M13.5 29.9995H7.5C6.672 29.9995 6 30.6715 6 31.4995C6 32.3275 6.672 32.9995 7.5 32.9995H13.5C14.328 32.9995 15 32.3275 15 31.4995C15 30.6715 14.328 29.9995 13.5 29.9995Z" fill="#2D7B09"/>
<path d="M47.091 7.61974L36.591 3.11974C36.21 2.96074 35.787 2.96074 35.406 3.11974L24.906 7.61974C24.357 7.85674 24 8.39974 24 8.99974V14.9997C24 23.2527 27.051 28.0767 35.253 32.8017C35.484 32.9337 35.742 32.9997 36 32.9997C36.258 32.9997 36.516 32.9337 36.747 32.8017C44.949 28.0887 48 23.2647 48 14.9997V8.99974C48 8.39974 47.643 7.85674 47.091 7.61974ZM45 14.9997C45 21.9267 42.708 25.7397 36 29.7597C29.292 25.7307 27 21.9177 27 14.9997V9.98974L36 6.13174L45 9.98974V14.9997Z" fill="#2D7B09"/>
<path d="M41.439 12.3268C40.794 11.8168 39.852 11.9158 39.33 12.5608L34.614 18.4588L32.748 15.6688C32.283 14.9788 31.35 14.7958 30.669 15.2518C29.982 15.7108 29.793 16.6438 30.252 17.3308L33.252 21.8308C33.519 22.2298 33.957 22.4758 34.437 22.4998C34.458 22.4998 34.482 22.4998 34.5 22.4998C34.953 22.4998 35.385 22.2958 35.673 21.9358L41.673 14.4358C42.189 13.7878 42.087 12.8458 41.439 12.3268Z" fill="#2D7B09"/>
</svg>
