<svg width="1446" height="1359" viewBox="0 0 1446 1359" fill="none" xmlns="http://www.w3.org/2000/svg">
<rect y="15" width="1446" height="1343" fill="white"/>
<mask id="mask0_578_735" style="mask-type:alpha" maskUnits="userSpaceOnUse" x="0" y="15" width="1446" height="1344">
<rect y="15.165" width="1446" height="1343" fill="white"/>
</mask>
<g mask="url(#mask0_578_735)">
<path fill-rule="evenodd" clip-rule="evenodd" d="M1446 190H0V15C241 68.3333 482 95 723 95C964 95 1205 68.3333 1446 15V190Z" fill="#653737"/>
<path d="M0 131H1446V1300H0V131Z" fill="#653737"/>
<path fill-rule="evenodd" clip-rule="evenodd" d="M1447 1358H0V1183C241.167 1236.33 482.333 1263 723.5 1263C964.667 1263 1205.83 1236.33 1447 1183V1358Z" fill="white"/>
</g>
<path opacity="0.15" fill-rule="evenodd" clip-rule="evenodd" d="M1013 1207.16C1013 935.099 1196.22 705.826 1446 636.001V848.102C1308.7 909.378 1213 1047.1 1213 1207.16C1213 1255.29 1221.65 1301.39 1237.48 1344H1028.87C1018.49 1300.07 1013 1254.26 1013 1207.16Z" fill="url(#paint0_linear_578_735)"/>
<path opacity="0.15" fill-rule="evenodd" clip-rule="evenodd" d="M340.254 0C305.429 162.323 170.357 287.438 3 307.383V508.329C280.976 486.533 505.094 273.059 543.26 0H340.254Z" fill="url(#paint1_linear_578_735)"/>
<defs>
<linearGradient id="paint0_linear_578_735" x1="2199" y1="615.746" x2="1016.16" y2="615.746" gradientUnits="userSpaceOnUse">
<stop stop-color="white"/>
<stop offset="1" stop-color="white" stop-opacity="0.01"/>
</linearGradient>
<linearGradient id="paint1_linear_578_735" x1="549" y1="-674.254" x2="-633.838" y2="-674.254" gradientUnits="userSpaceOnUse">
<stop stop-color="white" stop-opacity="0.01"/>
<stop offset="1" stop-color="white"/>
</linearGradient>
</defs>
</svg>
