<svg width="1140" height="368" viewBox="0 0 1140 368" fill="none" xmlns="http://www.w3.org/2000/svg">
<rect width="1140" height="368" rx="16" fill="#653737"/>
<mask id="mask0_111_11" style="mask-type:alpha" maskUnits="userSpaceOnUse" x="0" y="0" width="1140" height="368">
<rect width="1140" height="368" rx="16" fill="white"/>
</mask>
<g mask="url(#mask0_111_11)">
<path opacity="0.15" fill-rule="evenodd" clip-rule="evenodd" d="M-209 388C118.505 388 384 122.505 384 -205C384 -532.505 118.505 -798 -209 -798C-536.505 -798 -802 -532.505 -802 -205C-802 122.505 -536.505 388 -209 388ZM-209 188C-426.048 188 -602 12.0479 -602 -205C-602 -422.048 -426.048 -598 -209 -598C8.04791 -598 184 -422.048 184 -205C184 12.0479 8.04791 188 -209 188Z" fill="url(#paint0_linear_111_11)"/>
<path opacity="0.15" fill-rule="evenodd" clip-rule="evenodd" d="M1266 1163C1593.5 1163 1859 897.505 1859 570C1859 242.495 1593.5 -23 1266 -23C938.495 -23 673 242.495 673 570C673 897.505 938.495 1163 1266 1163ZM1266 963C1048.95 963 873 787.048 873 570C873 352.952 1048.95 177 1266 177C1483.05 177 1659 352.952 1659 570C1659 787.048 1483.05 963 1266 963Z" fill="url(#paint1_linear_111_11)"/>
</g>
<defs>
<linearGradient id="paint0_linear_111_11" x1="384" y1="-796.419" x2="-798.838" y2="-796.419" gradientUnits="userSpaceOnUse">
<stop stop-color="white" stop-opacity="0.01"/>
<stop offset="1" stop-color="white"/>
</linearGradient>
<linearGradient id="paint1_linear_111_11" x1="1859" y1="-21.4192" x2="676.162" y2="-21.4192" gradientUnits="userSpaceOnUse">
<stop stop-color="white"/>
<stop offset="1" stop-color="white" stop-opacity="0.01"/>
</linearGradient>
</defs>
</svg>
