<svg width="48" height="31" viewBox="0 0 48 31" fill="none" xmlns="http://www.w3.org/2000/svg">
<path d="M36.6316 0C42.9102 0 48 5.08982 48 11.3684C48 17.647 42.9102 22.7368 36.6316 22.7368C36.1844 22.7319 35.7379 22.7006 35.2944 22.6431C36.0771 26.1169 37.658 28.3158 37.6628 28.3224C38.0223 28.8301 37.9588 29.5239 37.5131 29.9579C37.0674 30.3919 36.3722 30.437 35.8742 30.0641C35.8742 30.0641 26.0944 22.8926 25.3372 12.6118C25.2898 12.199 25.2651 11.7839 25.2632 11.3684C25.2627 11.3264 25.2644 11.2844 25.2681 11.2426C25.337 5.01511 30.4037 0.00232145 36.6316 0Z" fill="#653737"/>
<path d="M11.3685 0C17.6471 0 22.7369 5.08982 22.7369 11.3684C22.7369 17.647 17.6471 22.7368 11.3685 22.7368C10.9213 22.7319 10.4748 22.7006 10.0313 22.6431C10.814 26.1169 12.3949 28.3158 12.3997 28.3224C12.7592 28.8301 12.6957 29.5239 12.25 29.9579C11.8043 30.3919 11.1091 30.437 10.6111 30.0641C10.6111 30.0641 0.831312 22.8926 0.0740795 12.6118C0.0267029 12.199 0.00199509 11.7839 6.67572e-05 11.3684C-0.00038147 11.3264 0.00126457 11.2844 0.00499916 11.2426C0.0739269 5.01511 5.14061 0.00232145 11.3685 0Z" fill="#653737"/>
</svg>
