<svg width="48" height="48" viewBox="0 0 48 48" fill="none" xmlns="http://www.w3.org/2000/svg">
<g clip-path="url(#clip0_158_34)">
<path d="M7.23381 21.9893H14.3434C14.8613 21.9893 15.2809 21.5696 15.2809 21.0518C15.2809 20.5343 14.8613 20.1143 14.3434 20.1143H7.23381C6.71599 20.1143 6.29631 20.5343 6.29631 21.0518C6.29631 21.5696 6.71599 21.9893 7.23381 21.9893Z" fill="#8F5656"/>
<path d="M7.23381 26.4895H14.9686C15.486 26.4895 15.9061 26.0695 15.9061 25.552C15.9061 25.0342 15.486 24.6145 14.9686 24.6145H7.23381C6.71599 24.6145 6.29631 25.0342 6.29631 25.552C6.29631 26.0695 6.71599 26.4895 7.23381 26.4895Z" fill="#8F5656"/>
<path d="M18.8361 26.489C19.0825 26.489 19.3246 26.3898 19.4989 26.2144C19.6732 26.04 19.7736 25.7991 19.7736 25.5515C19.7736 25.3051 19.6732 25.063 19.4989 24.8887C19.3246 24.7144 19.0825 24.614 18.8361 24.614C18.5896 24.614 18.3475 24.7144 18.1732 24.8887C17.9978 25.063 17.8986 25.3051 17.8986 25.5515C17.8986 25.7991 17.9978 26.04 18.1732 26.2144C18.3475 26.3898 18.5885 26.489 18.8361 26.489Z" fill="#8F5656"/>
<path d="M27.5658 20.4382C32.1152 20.4382 35.8162 16.7373 35.8162 12.1879C35.8162 7.63879 32.1152 3.9375 27.5658 3.9375C23.0167 3.9375 19.3154 7.63879 19.3154 12.1879C19.3154 16.7373 23.0167 20.4382 27.5658 20.4382ZM27.5658 5.81287C31.0811 5.81287 33.9412 8.67261 33.9412 12.1879C33.9412 15.7031 31.0811 18.5632 27.5658 18.5632C24.0505 18.5632 21.1908 15.7031 21.1908 12.1879C21.1908 8.67261 24.0505 5.81287 27.5658 5.81287Z" fill="#8F5656"/>
<path d="M45.5727 25.6992L44.4393 24.5657V11.811C44.4393 9.2263 42.3361 7.12315 39.7514 7.12315H38.6506C36.724 2.92382 32.4803 0 27.5658 0C22.6516 0 18.4076 2.92382 16.4813 7.12315H6.18789C3.60281 7.12315 1.50003 9.2263 1.50003 11.811V35.4367C1.50003 38.0218 3.60281 40.1246 6.18789 40.1246H18.2787V42.3767C15.7357 42.4258 13.6824 44.5081 13.6824 47.0624C13.6824 47.5802 14.1021 47.9999 14.6199 47.9999H31.3125C31.8303 47.9999 32.25 47.5802 32.25 47.0624C32.25 44.5081 30.1966 42.4262 27.654 42.3767V40.1246H39.7514C42.3365 40.1246 44.4393 38.0218 44.4393 35.4367V30.9254C44.8597 30.7682 45.2457 30.5222 45.5727 30.1951C46.812 28.9555 46.812 26.9388 45.5727 25.6992ZM39.7514 8.99852C41.3023 8.99852 42.5643 10.2601 42.5643 11.811V22.6908L38.1317 18.2581C39.1633 16.4699 39.754 14.3968 39.754 12.1878C39.754 11.0848 39.6057 10.0155 39.3295 8.99852H39.7514ZM27.5658 1.875C33.2523 1.875 37.8786 6.50133 37.8786 12.1878C37.8786 17.8744 33.2523 22.5007 27.5658 22.5007C21.8793 22.5007 17.2529 17.8744 17.2529 12.1878C17.2529 6.50133 21.8793 1.875 27.5658 1.875ZM6.18789 8.99852H15.8024C15.5262 10.0155 15.3779 11.0848 15.3779 12.1878C15.3779 13.3773 15.5501 14.5265 15.869 15.6141H7.23378C6.71596 15.6141 6.29629 16.0338 6.29629 16.5516C6.29629 17.0691 6.71596 17.4891 7.23378 17.4891H16.5923C18.5676 21.5614 22.7443 24.3761 27.5658 24.3761C29.7744 24.3761 31.8475 23.7854 33.6357 22.7541L41.0767 30.1951C41.4935 30.6119 42.0058 30.8983 42.5643 31.0349V31.8742H3.37503V11.811C3.37503 10.2601 4.63699 8.99852 6.18789 8.99852ZM30.2146 46.1249H15.7181C16.1049 45.0332 17.1478 44.2495 18.3702 44.2495H27.5621C28.7845 44.2495 29.8275 45.0332 30.2146 46.1249ZM25.779 42.3745H20.1537V40.1246H25.779V42.3745ZM39.7514 38.2496H6.18789C4.63699 38.2496 3.37503 36.9876 3.37503 35.4367V33.7492H42.5643V35.4367C42.5643 36.9876 41.3023 38.2496 39.7514 38.2496ZM44.2467 28.8691C43.7383 29.3777 42.9107 29.3774 42.4024 28.8691L35.2082 21.6745C35.8864 21.1274 36.505 20.5089 37.0521 19.8306L44.2467 27.0252C44.7549 27.5335 44.7549 28.3608 44.2467 28.8691Z" fill="#8F5656"/>
<path d="M27.5658 9.84448C28.8582 9.84448 29.9095 10.8959 29.9095 12.1879C29.9095 12.7057 30.3292 13.1254 30.847 13.1254C31.3649 13.1254 31.7845 12.7057 31.7845 12.1879C31.7845 9.86169 29.892 7.96948 27.5658 7.96948C27.048 7.96948 26.6283 8.38953 26.6283 8.90698C26.6283 9.4248 27.048 9.84448 27.5658 9.84448Z" fill="#8F5656"/>
</g>
<defs>
<clipPath id="clip0_158_34">
<rect width="48" height="48" fill="white"/>
</clipPath>
</defs>
</svg>
