<svg width="80" height="52" viewBox="0 0 80 52" fill="none" xmlns="http://www.w3.org/2000/svg">
<path fill-rule="evenodd" clip-rule="evenodd" d="M7.9199 44.4946C7.91991 44.4945 7.91992 44.4945 8.63199 44.5962L9.34406 44.6979L9.34366 44.7007L9.34227 44.7105L9.33668 44.7509C9.33177 44.7866 9.32459 44.8396 9.31566 44.9076C9.29779 45.0437 9.27295 45.2396 9.24532 45.4772C9.18995 45.9534 9.12387 46.5928 9.07995 47.2515C9.03573 47.9148 9.01548 48.5769 9.04659 49.1057C9.06222 49.3714 9.08965 49.5808 9.12521 49.7302C9.13112 49.755 9.1368 49.7762 9.14204 49.7941C9.21184 49.8103 9.30689 49.8276 9.43039 49.8442C9.75911 49.8884 10.2136 49.9184 10.7665 49.935C11.8679 49.9681 13.2888 49.9462 14.7235 49.9013C16.1554 49.8566 17.5887 49.7894 18.7112 49.7333C19.0022 49.7187 19.2755 49.7047 19.5237 49.692C19.8884 49.6733 20.1991 49.6574 20.4331 49.6466C20.4377 49.6042 20.4421 49.5564 20.4458 49.5025C20.4759 49.071 20.4566 48.4602 20.412 47.7909C20.3678 47.1292 20.3015 46.4428 20.2452 45.8689C20.2412 45.8281 20.2372 45.7876 20.2333 45.7473C20.1845 45.2512 20.1407 44.805 20.1407 44.5961L21.5793 44.5963C21.5793 44.73 21.6179 45.126 21.6769 45.7286C21.7331 46.3011 21.8016 47.0083 21.8474 47.6953C21.8926 48.3746 21.9183 49.0676 21.8809 49.6026C21.8629 49.8619 21.8269 50.1397 21.7446 50.3725C21.6873 50.5347 21.4626 51.0698 20.86 51.0698C20.7496 51.0698 20.3294 51.0913 19.6858 51.1243C19.4208 51.1378 19.1178 51.1533 18.783 51.1701C17.6577 51.2264 16.2138 51.294 14.7685 51.3392C13.326 51.3843 11.8698 51.4074 10.7234 51.373C10.1524 51.3558 9.64028 51.324 9.23846 51.2699C9.03882 51.243 8.847 51.2082 8.68059 51.1602C8.5449 51.121 8.30607 51.0419 8.12337 50.8592C7.88695 50.6227 7.78225 50.3007 7.72574 50.0634C7.66295 49.7997 7.62857 49.4977 7.61048 49.1902C7.57416 48.5727 7.59886 47.8412 7.64455 47.1558C7.69055 46.4658 7.75934 45.8015 7.81636 45.3111C7.84492 45.0654 7.87066 44.8624 7.88931 44.7203C7.89865 44.6492 7.90621 44.5934 7.91149 44.555L7.91762 44.5108L7.91928 44.499L7.9199 44.4946ZM20.3793 49.9152C20.3792 49.9147 20.3813 49.9092 20.3858 49.8999C20.3817 49.911 20.3794 49.9156 20.3793 49.9152Z" fill="#555555"/>
<path fill-rule="evenodd" clip-rule="evenodd" d="M72.242 44.4946C72.242 44.4945 72.2419 44.4945 71.5299 44.5962L70.8178 44.6979L70.8182 44.7007L70.8196 44.7105L70.8252 44.7509C70.8301 44.7866 70.8373 44.8396 70.8462 44.9076C70.8641 45.0437 70.8889 45.2396 70.9165 45.4772C70.9719 45.9534 71.038 46.5928 71.0819 47.2515C71.1261 47.9148 71.1464 48.5769 71.1153 49.1057C71.0996 49.3714 71.0722 49.5808 71.0367 49.7302C71.0307 49.755 71.0251 49.7762 71.0198 49.7941C70.95 49.8103 70.855 49.8276 70.7315 49.8442C70.4028 49.8884 69.9483 49.9184 69.3954 49.935C68.294 49.9681 66.873 49.9462 65.4383 49.9013C64.0065 49.8566 62.5731 49.7894 61.4507 49.7333C61.1596 49.7187 60.8864 49.7047 60.6382 49.692C60.2735 49.6733 59.9628 49.6574 59.7288 49.6466C59.7241 49.6042 59.7198 49.5564 59.716 49.5025C59.6859 49.071 59.7053 48.4602 59.7499 47.7909C59.794 47.1292 59.8604 46.4428 59.9166 45.8689C59.9206 45.8281 59.9246 45.7876 59.9286 45.7473C59.9773 45.2512 60.0212 44.805 60.0212 44.5961L58.5826 44.5963C58.5826 44.73 58.544 45.126 58.4849 45.7286C58.4288 46.3011 58.3603 47.0083 58.3145 47.6953C58.2692 48.3746 58.2436 49.0676 58.2809 49.6026C58.299 49.8619 58.3349 50.1397 58.4172 50.3725C58.4745 50.5347 58.6993 51.0698 59.3019 51.0698C59.4123 51.0698 59.8324 51.0913 60.476 51.1243C60.7411 51.1378 61.044 51.1533 61.3789 51.1701C62.5042 51.2264 63.948 51.294 65.3934 51.3392C66.8359 51.3843 68.2921 51.4074 69.4385 51.373C70.0095 51.3558 70.5216 51.324 70.9234 51.2699C71.123 51.243 71.3149 51.2082 71.4813 51.1602C71.617 51.121 71.8558 51.0419 72.0385 50.8592C72.2749 50.6227 72.3796 50.3007 72.4361 50.0634C72.4989 49.7997 72.5333 49.4977 72.5514 49.1902C72.5877 48.5727 72.563 47.8412 72.5173 47.1558C72.4713 46.4658 72.4025 45.8015 72.3455 45.3111C72.3169 45.0654 72.2912 44.8624 72.2726 44.7203C72.2632 44.6492 72.2557 44.5934 72.2504 44.555L72.2442 44.5108L72.2426 44.499L72.242 44.4946ZM59.7825 49.9152C59.7826 49.9147 59.7806 49.9092 59.776 49.8999C59.7802 49.911 59.7824 49.9156 59.7825 49.9152Z" fill="#555555"/>
<path fill-rule="evenodd" clip-rule="evenodd" d="M72.6493 19.6248C72.3567 19.1993 72.0723 18.7829 71.7957 18.3754C64.2812 7.30736 62.4859 2.80785 59.217 1.05293C56.0959 -0.622742 51.6313 0.203881 39.5618 0.203881C29.8187 0.203881 25.2542 -0.468291 21.7635 1.16073C17.9259 2.95165 15.3863 7.5239 8.69073 18.8284C8.43748 19.256 8.17828 19.6932 7.91284 20.1402C8.41998 20.2416 8.91864 20.3403 9.40995 20.4364C19.3715 22.3828 26.3114 23.2213 39.5618 23.2213C52.9038 23.2213 59.8478 23.2213 71.1918 20.0434C71.6696 19.9096 72.1551 19.7702 72.6493 19.6248ZM70.3374 18.7878C67.992 15.3194 66.2056 12.4958 64.7709 10.2281C64.1692 9.277 63.6293 8.42366 63.136 7.66154C61.237 4.72772 60.1111 3.29568 58.8465 2.50078C57.6389 1.7417 56.1309 1.46237 53.1166 1.44013C51.7931 1.43036 50.2391 1.46821 48.3461 1.51432C48.1021 1.52026 47.8525 1.52634 47.597 1.53247C45.3695 1.58595 42.726 1.64247 39.5618 1.64247C37.0005 1.64247 34.8505 1.59815 32.9884 1.55977C30.9624 1.51801 29.2772 1.48327 27.7738 1.52026C24.9713 1.58922 23.2462 1.9153 21.7671 2.7818C20.2606 3.66437 18.8357 5.20869 16.8848 8.11626C15.3126 10.4593 13.4792 13.5591 11.0255 17.7077C10.7543 18.1663 10.4755 18.6377 10.1886 19.1223C19.7988 20.9827 26.6368 21.7827 39.5618 21.7827C52.6996 21.7827 59.474 21.779 70.3374 18.7878Z" fill="#555555"/>
<path d="M64.7363 20.9104C55.3855 22.2981 49.5581 22.2981 38.5572 22.2981C27.5563 22.2981 20.9147 21.5788 12.9471 20.9104C23.7603 16.6325 22.0529 17.301 38.5572 17.301C58.4761 17.301 52.2158 16.6325 64.7363 20.9104Z" fill="#9D9D9D"/>
<path d="M57.5431 34.7752C51.5689 35.9647 47.8459 35.9647 40.8175 35.9647C33.7892 35.9647 29.546 35.3482 24.4556 34.7752C31.3639 31.1085 30.2732 31.6814 40.8175 31.6814C53.5435 31.6814 49.5439 31.1085 57.5431 34.7752Z" fill="#653737"/>
<path fill-rule="evenodd" clip-rule="evenodd" d="M57.5431 34.7752C56.6723 34.3761 55.9438 34.0272 55.3203 33.7223C53.4283 32.7971 52.5045 32.2773 51.5133 31.9896C49.8308 31.5012 47.9542 31.6814 40.8175 31.6814C34.8505 31.6814 32.6095 31.4979 30.5363 32.0031C29.4051 32.2788 28.3239 32.7595 26.7146 33.587C26.0614 33.9228 25.3213 34.3157 24.4556 34.7752C25.1237 34.8504 25.7773 34.9264 26.4245 35.0016C26.6124 35.0234 26.7998 35.0452 26.9868 35.0669C31.0632 35.5393 34.9795 35.9647 40.8175 35.9647C46.841 35.9647 50.4368 35.9647 55.1024 35.2159C55.8808 35.091 56.6889 34.9453 57.5431 34.7752ZM52.813 34.0863C52.7798 34.07 52.7471 34.054 52.7149 34.0383C51.794 33.59 51.2815 33.3849 50.6733 33.2645C50.0294 33.1369 49.2126 33.0913 47.6714 33.0878C46.97 33.0861 46.1853 33.0923 45.2458 33.0996C44.0628 33.1088 42.6344 33.12 40.8175 33.12C39.3408 33.12 38.1492 33.1095 37.1219 33.1004C36.2501 33.0927 35.4966 33.0861 34.7875 33.0878C33.3103 33.0913 32.3402 33.1352 31.5074 33.2727C30.8066 33.3883 30.1803 33.5718 29.4124 33.8928C32.7147 34.2497 36.1321 34.5261 40.8175 34.5261C45.8965 34.5261 49.1832 34.5247 52.813 34.0863Z" fill="#653737"/>
<path fill-rule="evenodd" clip-rule="evenodd" d="M74.4691 41.4437C75.1978 40.1944 75.5318 38.1277 75.5318 34.526C75.5318 31.8735 75.6013 29.662 75.6585 27.8425C75.6624 27.7164 75.6663 27.5921 75.6701 27.4698C75.7299 25.5555 75.7651 24.1639 75.6925 23.1176C75.6178 22.0412 75.4399 21.6102 75.2973 21.4241C75.2154 21.3172 75.0315 21.1343 74.2917 21.0508C73.5162 20.9632 72.3964 21.0149 70.7191 21.179C69.8481 21.2642 68.8909 21.3722 67.8027 21.495C66.7869 21.6096 65.6571 21.7371 64.3768 21.8709C59.1481 22.4175 51.8601 23.0174 41.7305 23.0174C31.607 23.0174 24.101 22.4747 18.5478 22.0007C17.6793 21.9265 16.8631 21.8545 16.0946 21.7867C14.3954 21.6367 12.9289 21.5073 11.6442 21.421C9.77166 21.2953 8.3992 21.2707 7.36905 21.3895C6.34759 21.5073 5.82139 21.7499 5.50462 22.0279C5.1948 22.2997 4.90503 22.7639 4.69388 23.7122C4.47908 24.6768 4.37831 25.9887 4.33893 27.8054C4.31068 29.1083 4.3143 30.6104 4.31853 32.3657C4.32017 33.0467 4.32191 33.7657 4.32191 34.526C4.32191 38.0887 4.6586 40.1101 5.42034 41.3363C6.08992 42.4142 7.25771 43.1191 9.81989 43.4652C12.4188 43.8162 16.0854 43.751 21.3503 43.5835C22.0047 43.5626 22.6821 43.5403 23.3831 43.5173C28.2726 43.3563 34.3129 43.1575 41.7305 43.1575C48.4835 43.1575 53.9867 43.3725 58.438 43.5463C58.9859 43.5677 59.5178 43.5885 60.0342 43.6082C64.7961 43.7896 68.1126 43.869 70.4738 43.5317C72.7729 43.2032 73.8374 42.5268 74.4691 41.4437ZM58.3817 44.9838C73.9274 45.5908 76.9704 45.7097 76.9704 34.526C76.9704 25.6504 77.7549 21.7647 76.2267 20.3124C73.8839 18.0858 66.1054 21.5788 41.7305 21.5788C16.4032 21.5788 7.56786 18.1651 4.49828 20.9983C2.68683 22.6702 2.88332 26.5177 2.88332 34.526C2.88332 45.6313 5.95732 45.5301 23.4317 44.9551C28.3211 44.7941 34.338 44.5961 41.7305 44.5961C48.454 44.5961 53.9304 44.81 58.3817 44.9838Z" fill="#555555"/>
<path fill-rule="evenodd" clip-rule="evenodd" d="M14.7042 34.5976C16.8856 34.8999 18.4709 33.6171 18.6615 32.2413C18.8522 30.8655 17.6755 29.2 15.4941 28.8977C14.2891 28.7307 12.8634 28.807 11.7591 29.1537C10.5853 29.5221 10.2566 30.0113 10.2105 30.344C10.1412 30.8437 10.4832 31.7856 11.5074 32.8092C12.4833 33.7845 13.7232 34.4616 14.7042 34.5976ZM14.5067 36.0225C17.2611 36.4043 19.7593 34.7998 20.0865 32.4388C20.4137 30.0778 18.446 27.8544 15.6915 27.4727C12.9371 27.091 9.11267 27.7855 8.78548 30.1465C8.45829 32.5075 11.7522 35.6408 14.5067 36.0225Z" fill="#555555"/>
<path d="M17.1368 32.7563C16.9732 33.9368 15.7241 34.739 14.3469 34.5481C12.9697 34.3573 11.3227 32.7906 11.4863 31.6101C11.6499 30.4296 13.5621 30.0824 14.9393 30.2732C16.3166 30.4641 17.3004 31.5758 17.1368 32.7563Z" fill="#653737"/>
<path fill-rule="evenodd" clip-rule="evenodd" d="M15.4196 32.956C15.621 32.8266 15.6954 32.6776 15.7118 32.5588C15.7283 32.44 15.6973 32.2764 15.5386 32.0971C15.3773 31.9148 15.1036 31.7483 14.7419 31.6982C14.2255 31.6266 13.6221 31.6639 13.1886 31.8C13.0823 31.8333 13.0069 31.8644 12.9545 31.8903C12.9579 31.8977 12.9615 31.9054 12.9654 31.9135C13.0343 32.0557 13.1628 32.2399 13.3557 32.4327C13.7682 32.8449 14.2521 33.0827 14.5444 33.1232C14.9061 33.1733 15.2147 33.0876 15.4196 32.956ZM12.8466 31.9625C12.8454 31.962 12.85 31.9556 12.8639 31.9446C12.8548 31.9574 12.8479 31.9629 12.8466 31.9625ZM14.3469 34.5481C15.7241 34.739 16.9732 33.9368 17.1368 32.7563C17.3004 31.5758 16.3166 30.4641 14.9393 30.2732C13.5621 30.0824 11.6499 30.4296 11.4863 31.6101C11.3227 32.7906 12.9697 34.3573 14.3469 34.5481Z" fill="#653737"/>
<path fill-rule="evenodd" clip-rule="evenodd" d="M65.872 34.5992C63.6921 34.9129 62.1002 33.6384 61.9024 32.2636C61.7045 30.8888 62.8725 29.2172 65.0524 28.9036C66.2565 28.7303 67.6826 28.7992 68.7886 29.1401C69.9643 29.5024 70.2956 29.9899 70.3434 30.3223C70.4153 30.8216 70.0782 31.7654 69.0594 32.7942C68.0885 33.7746 66.8522 34.4582 65.872 34.5992ZM66.0769 36.0232C63.3244 36.4192 60.8179 34.8278 60.4784 32.4685C60.139 30.1093 62.0951 27.8757 64.8475 27.4796C67.5999 27.0836 71.4279 27.7582 71.7674 30.1174C72.1068 32.4766 68.8293 35.6271 66.0769 36.0232Z" fill="#555555"/>
<path d="M63.4295 32.7707C63.5993 33.9503 64.8525 34.7461 66.2287 34.548C67.605 34.35 69.2437 32.7748 69.074 31.5951C68.9042 30.4155 66.9903 30.0782 65.614 30.2763C64.2378 30.4743 63.2598 31.5911 63.4295 32.7707Z" fill="#653737"/>
<path fill-rule="evenodd" clip-rule="evenodd" d="M65.1478 32.9615C64.9457 32.8332 64.8705 32.6846 64.8535 32.5658C64.8364 32.4471 64.8665 32.2833 65.0243 32.1032C65.1847 31.92 65.4574 31.7522 65.8189 31.7002C66.3349 31.6259 66.9385 31.66 67.3728 31.7939C67.4792 31.8267 67.5547 31.8574 67.6072 31.883C67.6039 31.8904 67.6004 31.8981 67.5965 31.9062C67.5284 32.0488 67.4008 32.2336 67.2089 32.4274C66.7986 32.8418 66.3159 33.0821 66.0238 33.1241C65.6623 33.1761 65.3533 33.092 65.1478 32.9615ZM67.7155 31.9546C67.7167 31.9541 67.7121 31.9477 67.6982 31.9368C67.7073 31.9496 67.7143 31.955 67.7155 31.9546ZM66.2287 34.548C64.8525 34.7461 63.5993 33.9503 63.4295 32.7707C63.2598 31.5911 64.2378 30.4743 65.614 30.2763C66.9903 30.0782 68.9042 30.4155 69.074 31.5951C69.2437 32.7748 67.605 34.35 66.2287 34.548Z" fill="#653737"/>
<path d="M71.9958 16.5793C71.7179 15.0148 72.7608 13.5212 74.3254 13.2432L75.5507 13.0255C77.1153 12.7476 78.6089 13.7905 78.8868 15.3551V15.3551C79.1648 16.9196 78.1218 18.4132 76.5573 18.6912L75.3319 18.9089C73.7674 19.1868 72.2738 18.1438 71.9958 16.5793V16.5793Z" fill="#653737"/>
<path d="M0.503277 17.0044C0.225325 15.4398 1.26829 13.9462 2.83282 13.6683L4.05819 13.4506C5.62271 13.1726 7.11633 14.2156 7.39428 15.7801V15.7801C7.67223 17.3446 6.62926 18.8383 5.06474 19.1162L3.83937 19.3339C2.27485 19.6119 0.781229 18.5689 0.503277 17.0044V17.0044Z" fill="#653737"/>
</svg>
