<svg width="397" height="222" viewBox="0 0 397 222" fill="none" xmlns="http://www.w3.org/2000/svg">
<ellipse opacity="0.1" cx="198.035" cy="202.143" rx="198.035" ry="19.7213" fill="#C4C4C4"/>
<path opacity="0.2" fill-rule="evenodd" clip-rule="evenodd" d="M157.531 183.079C126.426 166.934 105.176 134.43 105.176 96.9633C105.176 43.4119 148.588 0 202.139 0C244.641 0 280.757 27.346 293.85 65.4033C277.312 128.135 223.498 175.734 157.531 183.079Z" fill="#6DBE96"/>
<path opacity="0.5" d="M172.556 25.5879C172.556 31.9414 164.338 18.2248 158.586 32.1616C150.871 32.1616 144.617 31.9414 144.617 25.5879C144.617 19.2343 150.871 23.9444 158.586 23.9444C163.517 13.262 172.556 19.2343 172.556 25.5879Z" fill="#005221"/>
<path opacity="0.5" d="M318.832 102.715C318.832 109.069 332.3 119.971 324.585 119.971C316.87 119.971 310.615 114.821 310.615 108.467C310.615 102.114 316.87 96.9633 324.585 96.9633C332.3 96.9633 318.832 96.3618 318.832 102.715Z" fill="#E85656"/>
<path opacity="0.5" d="M276.068 149.553C276.068 155.906 265.386 165.166 260.456 170.918C256.347 149.553 248.13 155.906 248.13 149.553C248.13 143.199 254.384 138.049 262.099 138.049C269.814 138.049 276.068 143.199 276.068 149.553Z" fill="#005221"/>
<path opacity="0.5" d="M102.039 93.9927C107.575 97.1117 97.5373 98.6348 93.75 105.356C89.9627 112.078 93.8596 121.452 88.3243 118.333C82.789 115.214 81.372 107.237 85.1593 100.516C88.9466 93.7941 96.504 90.8738 102.039 93.9927Z" fill="#DD8D8D"/>
<path d="M199.569 91.6152L172.572 66.5723L195.069 118.328L299.117 13.1475L199.569 91.6152Z" fill="#005221" stroke="#005221"/>
</svg>
